<?xml version="1.0" encoding="utf-8"?>
<!-- Generator: Adobe Illustrator 21.1.0, SVG Export Plug-In . SVG Version: 6.00 Build 0)  -->
<svg version="1.1" id="Layer_1" xmlns="http://www.w3.org/2000/svg" xmlns:xlink="http://www.w3.org/1999/xlink" x="0px" y="0px"
	 viewBox="0 0 136.7 136.1" style="enable-background:new 0 0 136.7 136.1;" xml:space="preserve">
<style type="text/css">
	.st0{fill:#2C1CEC;}
</style>
<g>
	<path class="st0" d="M78.2,6.7l-3.9-0.5l-0.9,1.7l-1.1-0.1L76.5,0l1.3,0.2l2.1,8.6l-1.3-0.2L78.2,6.7z M76.8,1.5l-2,3.7l3.1,0.4
		L76.8,1.5L76.8,1.5z"/>
	<path class="st0" d="M85.7,10.3l-2.3-6.9l0,0l-1.5,5.8l-1-0.3l2.1-8l1,0.3L86.2,8l0,0l1.5-5.7l1,0.3l-2.1,8L85.7,10.3z"/>
	<path class="st0" d="M91.6,3.5L92.7,4l-1.6,4L96,5.3l1.3,0.5l-4.2,2.2l1.2,5.4L93,13l-0.9-4.4l-1.5,0.7l-0.9,2.3l-1.1-0.4L91.6,3.5
		z"/>
	<path class="st0" d="M104.5,9.8l-2.7,4.9c-0.4,0.7-1,1.2-1.7,1.3c-0.7,0.2-1.5,0-2.2-0.4l-0.1-0.1c-0.8-0.4-1.3-1-1.5-1.7
		c-0.2-0.7-0.1-1.4,0.3-2.1l2.7-4.9l1,0.6l-2.7,4.9c-0.2,0.4-0.3,0.9-0.2,1.3c0.2,0.5,0.5,0.8,1,1.1c0.5,0.3,1,0.4,1.4,0.2
		c0.4-0.1,0.8-0.4,1-0.8l2.7-4.9L104.5,9.8z"/>
	<path class="st0" d="M107.2,21.8c-0.2-0.1-0.4-0.1-0.5-0.3c-0.1-0.1-0.2-0.2-0.4-0.4c-0.2-0.2-0.2-0.6-0.1-0.9
		c0.1-0.2,0.2-0.5,0.4-0.7s0.4-0.6,0.5-0.9c0.1-0.3,0.1-0.5,0.1-0.7c0-0.4-0.2-0.7-0.5-0.9l-1.7-1.3l-2.2,2.9L102,18l4.9-6.6
		l2.8,2.1c0.9,0.7,1.3,1.4,1.2,2.3c0,0.3-0.2,0.5-0.3,0.8c-0.2,0.2-0.4,0.4-0.5,0.5c-0.2,0.1-0.4,0.2-0.6,0.3
		c-0.5,0.1-0.9,0.1-1.3-0.1l0,0c0.3,0.5,0.4,1,0.2,1.7c-0.1,0.3-0.2,0.6-0.4,0.9c-0.2,0.3-0.4,0.5-0.5,0.7s-0.1,0.3-0.2,0.4
		c0,0.2,0,0.4,0.1,0.6L107.2,21.8z M107.6,16.3c0.3,0.2,0.6,0.3,0.9,0.3c0.3,0,0.6-0.2,0.8-0.5l0,0c0.2-0.3,0.3-0.6,0.2-0.9
		s-0.2-0.6-0.6-0.9l-1.9-1.4l-1.5,2L107.6,16.3z"/>
	<path class="st0" d="M116.7,27.1c-0.8,0.7-1.6,1.1-2.4,1c-0.8-0.1-1.5-0.4-2.1-1.1c-0.7-0.7-1-1.5-1-2.4c0-0.9,0.5-1.8,1.4-2.6
		l0.8-0.7c0.9-0.8,1.8-1.2,2.7-1.2c0.9,0,1.6,0.4,2.3,1.1c0.6,0.7,1,1.4,0.9,2.2c0,0.8-0.4,1.6-1.2,2.4l-0.8-0.9
		c0.5-0.5,0.8-1,0.8-1.6c0-0.5-0.2-1-0.6-1.4c-0.7-0.8-1.5-0.9-2.4-0.5c-0.3,0.1-0.7,0.4-1,0.7l-0.8,0.7c-1,0.9-1.3,1.8-0.9,2.6
		c0.1,0.3,0.3,0.5,0.5,0.7c0.2,0.2,0.4,0.4,0.7,0.5c0.2,0.1,0.5,0.2,0.7,0.2c0.6,0,1.1-0.2,1.6-0.7L116.7,27.1z"/>
	<path class="st0" d="M118.3,34.4l3-2.1l-2.2-3.1l-3,2.1l-0.7-1l6.7-4.8l0.7,1l-2.8,2l2.2,3.1l2.8-2l0.7,1l-6.7,4.8L118.3,34.4z"/>
	<path class="st0" d="M123.8,40.3l-1.9-3.5l-1.9,0.2l-0.5-1l8.8-1.1l0.6,1.1l-5.7,6.7l-0.6-1.1L123.8,40.3z M127.3,36.2l-4.2,0.5
		l1.5,2.7L127.3,36.2L127.3,36.2z"/>
	<path class="st0" d="M133.2,46.4l-5.2,2c-0.8,0.3-1.5,0.3-2.2-0.1c-0.7-0.3-1.1-0.9-1.5-1.8l-0.1-0.1c-0.3-0.8-0.3-1.6-0.1-2.3
		c0.3-0.7,0.8-1.2,1.6-1.5l5.2-2l0.4,1.1l-5.2,2c-0.5,0.2-0.8,0.5-1,0.9c-0.2,0.5-0.2,0.9,0,1.5c0.2,0.5,0.5,0.9,0.9,1.1
		c0.4,0.2,0.9,0.2,1.3,0l5.2-2L133.2,46.4z"/>
	<path class="st0" d="M127.2,55.9l3.6-0.8l-0.9-3.7l-3.6,0.8l-0.3-1.1l8-1.9l0.3,1.1l-3.4,0.8l0.9,3.7l3.4-0.8l0.3,1.1l-8,1.9
		L127.2,55.9z"/>
	<path class="st0" d="M130,63.5l-0.4-3.9l-1.8-0.5l-0.1-1.1l8.5,2.4l0.1,1.3l-7.9,4l-0.1-1.3L130,63.5z M134.8,61l-4.1-1.1l0.3,3.1
		L134.8,61L134.8,61z"/>
	<path class="st0" d="M128.3,71.6l6.1-3.8l0,0l-6-0.2l0-1.1l8.2,0.2l0,1l-6.1,3.8l0,0l5.9,0.2l0,1.1l-8.2-0.2L128.3,71.6z"/>
</g>
<g>
	<path class="st0" d="M81.2,134.8l-3.1,0.5l-0.2-1.1l0.9-0.2l-1-6l-0.9,0.2l-0.2-1.1l3.1-0.5l0.2,1.1l-0.9,0.2l1,6l0.9-0.2
		L81.2,134.8z"/>
	<path class="st0" d="M70.1,127.8l4.4,5.8l0,0l-0.4-6l1.1-0.1l0.5,8.2l-1,0.1l-4.4-5.7l0,0l0.4,5.9l-1.1,0.1l-0.5-8.2L70.1,127.8z"
		/>
	<path class="st0" d="M63.8,134.8l0.4-7.2l1.2,0.1l-0.4,7.2l2.6,0.2l-0.1,1.1l-6.3-0.4l0.1-1.1L63.8,134.8z"/>
	<path class="st0" d="M60.4,127.3l-1.4,8.1l-5.3-0.9l0.3-1l4,0.7l0.4-2.4l-3.6-0.6l0.2-1.1l3.6,0.6l0.5-2.6l-4.1-0.7l0-1.1
		L60.4,127.3z"/>
	<path class="st0" d="M47.5,124.2c0.2,0,0.4,0,0.6,0.1c0.2,0,0.3,0.1,0.4,0.2c0.3,0.2,0.4,0.4,0.4,0.9c0,0.2,0,0.5-0.1,0.8
		s-0.2,0.7-0.2,1c0,0.3,0.1,0.5,0.1,0.7c0.2,0.3,0.4,0.6,0.7,0.7l2,0.6l1.1-3.5l1.1,0.3l-2.4,7.9l-3.4-1c-1.1-0.3-1.7-0.9-1.9-1.7
		c-0.1-0.3,0-0.6,0-0.8c0.1-0.3,0.2-0.5,0.3-0.7c0.1-0.2,0.3-0.3,0.5-0.5c0.4-0.3,0.8-0.4,1.2-0.4l0-0.1c-0.4-0.3-0.7-0.8-0.8-1.5
		c0-0.3,0-0.6,0.1-1c0.1-0.3,0.2-0.6,0.2-0.8c0-0.2,0-0.3,0-0.5c0-0.2-0.1-0.4-0.3-0.5L47.5,124.2z M49,129.5
		c-0.3-0.1-0.7-0.1-1,0.1c-0.3,0.1-0.5,0.4-0.6,0.7l0,0c-0.1,0.3-0.1,0.6,0.1,0.9c0.2,0.3,0.4,0.5,0.8,0.6l2.2,0.7l0.7-2.4L49,129.5
		z"/>
	<path class="st0" d="M41.3,123.3l3.6,1.6l1.4-1.3l1,0.5l-6.3,6.2l-1.2-0.5l0.5-8.8l1.2,0.5L41.3,123.3z M41,128.7l3-3l-2.8-1.3
		L41,128.7L41,128.7z"/>
	<path class="st0" d="M32.6,119.9c0.6-0.9,1.3-1.4,2.1-1.6c0.8-0.2,1.5,0,2.3,0.5c0.9,0.5,1.4,1.2,1.6,2c0.2,0.9,0,1.8-0.6,2.9
		l-0.6,0.9c-0.6,1-1.4,1.6-2.3,1.9c-0.8,0.2-1.7,0-2.5-0.5c-0.8-0.5-1.3-1.1-1.5-1.9c-0.2-0.8-0.1-1.7,0.5-2.6l1,0.6
		c-0.4,0.6-0.5,1.2-0.4,1.7c0.1,0.5,0.4,0.9,1,1.2c0.9,0.6,1.7,0.5,2.5-0.2c0.3-0.2,0.5-0.5,0.8-0.9l0.6-0.9
		c0.7-1.1,0.8-2.1,0.2-2.8c-0.2-0.2-0.4-0.4-0.7-0.6c-0.3-0.2-0.5-0.3-0.8-0.3c-0.3-0.1-0.5-0.1-0.8,0c-0.5,0.1-1,0.5-1.4,1.1
		L32.6,119.9z"/>
	<path class="st0" d="M26.2,120.1l4.4-5.6l0.9,0.7l-4.4,5.6l2,1.6l-0.7,0.8l-5-3.9l0.7-0.8L26.2,120.1z"/>
	<path class="st0" d="M22.4,118.3l-2.2-2.1l0.7-0.8l0.7,0.7l4.2-4.4l-0.7-0.7l0.7-0.8l2.2,2.1l-0.7,0.8l-0.7-0.7l-4.2,4.4l0.7,0.7
		L22.4,118.3z"/>
	<path class="st0" d="M21.9,108.2l-6.5,2.6l-0.7-0.9l8.1-3.2l0.8,0.9l-4.3,7.6l-0.8-0.9L21.9,108.2L21.9,108.2z"/>
	<path class="st0" d="M20.3,103.7l-6.8,4.7l-3.1-4.5l1-0.5l2.3,3.4l2-1.4l-2.1-3l0.9-0.6l2.1,3l2.1-1.5l-2.3-3.4l0.8-0.7L20.3,103.7
		z"/>
	<path class="st0" d="M15.1,95.5l-7.5,3.4l-1.2-2.6c-0.4-0.9-0.5-1.8-0.2-2.6c0.3-0.9,1-1.6,2.1-2.1l0.8-0.3c1.1-0.5,2.1-0.6,3-0.2
		c0.8,0.3,1.4,0.9,1.8,1.8L15.1,95.5z M12.9,93.4c-0.4-1-1.2-1.4-2.2-1.3c-0.3,0-0.7,0.2-1.2,0.3l-0.8,0.4c-1.2,0.6-1.8,1.3-1.7,2.3
		c0,0.3,0.1,0.6,0.2,0.9l0.7,1.5l5.5-2.5L12.9,93.4z"/>
	<path class="st0" d="M11.9,88.3l-7.8,2.5l-1.6-5.1l1.1-0.2l1.2,3.9l2.3-0.7L6,85.1l1-0.3l1.1,3.5l2.5-0.8l-1.3-3.9l1-0.5L11.9,88.3
		z"/>
	<path class="st0" d="M7.3,81.6l0.2,0c0.5-0.1,0.8-0.3,0.9-0.7c0.2-0.4,0.2-0.9,0.1-1.5c-0.1-0.6-0.3-1-0.6-1.3
		c-0.3-0.3-0.6-0.4-1-0.3c-0.4,0.1-0.6,0.2-0.8,0.5c-0.1,0.3-0.2,0.6-0.3,1c0,0.4-0.1,0.8-0.1,1.2c0,0.4-0.1,0.8-0.2,1.2
		c-0.1,0.4-0.3,0.7-0.5,1c-0.2,0.3-0.6,0.5-1,0.6c-0.4,0.1-0.8,0.1-1.1,0c-0.3-0.1-0.6-0.3-0.8-0.5c-0.5-0.4-0.8-1.1-0.9-1.9
		c-0.2-0.8-0.1-1.5,0.1-2.1c0.3-0.6,0.8-1,1.6-1.2l0.1,0l0.2,1.2l-0.2,0c-0.4,0.1-0.6,0.3-0.8,0.6c-0.1,0.4-0.2,0.8-0.1,1.3
		c0.2,0.8,0.5,1.3,0.9,1.5c0.2,0.1,0.3,0.1,0.5,0C4,82,4.3,81.9,4.4,81.6c0.1-0.3,0.2-0.6,0.2-1s0.1-0.8,0.1-1.2
		c0-0.4,0.1-0.8,0.2-1.2s0.3-0.7,0.5-1c0.2-0.3,0.6-0.5,1.1-0.6c0.5-0.1,0.9-0.1,1.2,0c0.3,0.1,0.6,0.3,0.9,0.5
		c0.5,0.5,0.8,1.1,1,2.1c0.3,1.4,0,2.4-0.7,3.1c-0.3,0.2-0.6,0.4-1.1,0.5l-0.2,0L7.3,81.6z"/>
	<path class="st0" d="M0.6,75.8l-0.3-3.1l1.1-0.1l0.1,1L7.5,73l-0.1-1l1.1-0.1L8.8,75l-1.1,0.1l-0.1-1l-6.1,0.6l0.1,1L0.6,75.8z"/>
	<path class="st0" d="M6.8,64.3c0.7,0,1.2,0,1.5-0.1l0,0.7c-0.3,0.1-0.6,0.2-1,0.2c0.7,0.5,1.1,1.3,1.1,2.3c0,1-0.3,1.8-0.9,2.4
		c-0.7,0.6-1.6,1-2.8,1l-1.1,0c-1.2,0-2.1-0.3-2.8-1C0.3,69.2,0,68.4,0,67.4c0-0.9,0.3-1.7,0.8-2.2c0.6-0.6,1.3-0.9,2.3-0.9l0,1.2
		c-0.7,0-1.2,0.2-1.5,0.6c-0.3,0.3-0.4,0.8-0.4,1.4c0,1.1,0.5,1.7,1.4,2c0.3,0.1,0.7,0.2,1.2,0.2l1.1,0c1.3,0,2.2-0.4,2.5-1.3
		c0.1-0.3,0.2-0.6,0.2-0.9c0-0.7-0.2-1.2-0.5-1.5c-0.3-0.3-0.9-0.5-1.7-0.5H5.1l0,2.3l-1.1,0l0-3.5L6.8,64.3z"/>
	<path class="st0" d="M9.2,57.5l-6.5,3.2l0,0l6,0.8l-0.1,1.1l-8.2-1.1l0.1-1l6.4-3.1l0,0L1,56.5l0.1-1.1l8.2,1.1L9.2,57.5z"/>
	<path class="st0" d="M9.8,54.6l-8-2.1l1.4-5.2l1,0.4l-1.1,3.9l2.3,0.6l1-3.6l1,0.3l-1,3.6L9,53.2l1.1-4l1.1,0.1L9.8,54.6z"/>
	<path class="st0" d="M14,42c0,0.2,0,0.4-0.1,0.6c-0.1,0.1-0.1,0.3-0.3,0.4c-0.2,0.2-0.5,0.3-0.9,0.3c-0.2,0-0.5-0.1-0.8-0.2
		c-0.3-0.1-0.7-0.2-0.9-0.2c-0.3,0-0.5,0-0.7,0.1c-0.4,0.1-0.6,0.3-0.7,0.7l-0.8,1.9l3.4,1.4L11.6,48L4,44.9l1.3-3.2
		c0.4-1,1.1-1.6,1.9-1.7c0.3,0,0.6,0,0.8,0.1c0.3,0.1,0.5,0.2,0.7,0.4C8.9,40.6,9,40.8,9.1,41c0.3,0.4,0.3,0.8,0.3,1.2l0.1,0
		c0.4-0.4,0.9-0.6,1.5-0.6c0.3,0,0.6,0.1,0.9,0.2c0.3,0.1,0.6,0.2,0.8,0.3c0.2,0,0.3,0.1,0.5,0.1c0.2,0,0.4-0.1,0.5-0.3L14,42z
		 M8.6,43c0.1-0.3,0.1-0.7,0-1c-0.1-0.3-0.3-0.6-0.7-0.7l0,0c-0.3-0.1-0.6-0.1-0.9,0c-0.3,0.1-0.5,0.4-0.7,0.8l-0.9,2.2l2.3,0.9
		L8.6,43z"/>
</g>
<g>
	<path class="st0" d="M67.2,3c-23,0.4-43.2,12.9-54.3,31.3l1.4,0.5C25.2,17,44.8,5,67.1,4.5L67.2,3z"/>
	<path class="st0" d="M130.8,78.2c-4,24.2-21.9,43.8-45.1,50.4l0.2,1.5c23.9-6.7,42.3-26.9,46.4-51.7L130.8,78.2z"/>
</g>
</svg>
